HIERARCHY
ROOT Pelvis
{
	OFFSET 0.000000 0.000000 0.000000
	CHANNELS 6 Xposition Yposition Zposition Xrotation Yrotation Zrotation
	JOINT LeftUpLeg_virtual
	{
		OFFSET 0.000000 0.000000 0.000000
		CHANNELS 3 Xrotation Yrotation Zrotation
		JOINT LeftUpLeg
		{
			OFFSET 18.735201 -5.666702 -4.541200
			CHANNELS 3 Xrotation Yrotation Zrotation
			JOINT LeftLeg
			{
				OFFSET -0.021200 -31.938179 0.493100
				CHANNELS 3 Xrotation Yrotation Zrotation
				JOINT LeftFoot
				{
					OFFSET 0.021200 -31.938179 -4.336299
					CHANNELS 3 Xrotation Yrotation Zrotation
					JOINT LeftToeBase
					{
						OFFSET 0.943001 -26.722000 15.023500
						CHANNELS 3 Xrotation Yrotation Zrotation
						End Site
						{
							OFFSET 0 0 0
						}
					}
				}
			}
		}
	}
	JOINT RightUpLeg_virtual
	{
		OFFSET 0.000000 0.000000 0.000000
		CHANNELS 3 Xrotation Yrotation Zrotation
		JOINT RightUpLeg
		{
			OFFSET -18.735201 -5.666702 -4.541200
			CHANNELS 3 Xrotation Yrotation Zrotation
			JOINT RightLeg
			{
				OFFSET 0.018946 -31.938133 0.493100
				CHANNELS 3 Xrotation Yrotation Zrotation
				JOINT RightFoot
				{
					OFFSET -0.018946 -31.938126 -4.336299
					CHANNELS 3 Xrotation Yrotation Zrotation
					JOINT RightToeBase
					{
						OFFSET -0.943001 -26.722004 15.023500
						CHANNELS 3 Xrotation Yrotation Zrotation
						End Site
						{
							OFFSET 0 0 0
						}
					}
				}
			}
		}
	}
	JOINT Hips_virtual
	{
		OFFSET 0.000000 0.000000 0.000000
		CHANNELS 3 Xrotation Yrotation Zrotation
		JOINT Hips
		{
			OFFSET -0.000000 -0.000000 -0.000000
			CHANNELS 3 Xrotation Yrotation Zrotation
			JOINT Spine
			{
				OFFSET 0.000000 10.199997 -0.299500
				CHANNELS 3 Xrotation Yrotation Zrotation
				JOINT Spine1
				{
					OFFSET 0.000000 11.900002 -1.516600
					CHANNELS 3 Xrotation Yrotation Zrotation
					JOINT Spine2
					{
						OFFSET 0.000000 13.600006 -2.842500
						CHANNELS 3 Xrotation Yrotation Zrotation
						JOINT Neck_virtual
						{
							OFFSET 0.000000 0.000000 0.000000
							CHANNELS 3 Xrotation Yrotation Zrotation
							JOINT Neck
							{
								OFFSET 0.000000 9.624100 -2.890100
								CHANNELS 3 Xrotation Yrotation Zrotation
								JOINT Head
								{
									OFFSET 0.000000 14.068802 -1.351900
									CHANNELS 3 Xrotation Yrotation Zrotation
									End Site
									{
										OFFSET 0 0 0
									}
								}
							}
						}
						JOINT LeftShoulder_virtual
						{
							OFFSET 0.000000 0.000000 0.000000
							CHANNELS 3 Xrotation Yrotation Zrotation
							JOINT LeftShoulder
							{
								OFFSET 15.263000 10.923401 -0.547700
								CHANNELS 3 Xrotation Yrotation Zrotation
								JOINT LeftArm
								{
									OFFSET 25.438599 -2.830597 -13.032500
									CHANNELS 3 Xrotation Yrotation Zrotation
									JOINT LeftForeArm
									{
										OFFSET 29.960503 0.000000 0.000000
										CHANNELS 3 Xrotation Yrotation Zrotation
										JOINT LeftHand
										{
											OFFSET 27.849251 0.000000 0.000000
											CHANNELS 3 Xrotation Yrotation Zrotation
											End Site
											{
												OFFSET 0 0 0
											}
										}
									}
								}
							}
						}
						JOINT RightShoulder_virtual
						{
							OFFSET 0.000000 0.000000 0.000000
							CHANNELS 3 Xrotation Yrotation Zrotation
							JOINT RightShoulder
							{
								OFFSET -15.263000 10.923401 -0.547700
								CHANNELS 3 Xrotation Yrotation Zrotation
								JOINT RightArm
								{
									OFFSET -25.438599 -2.830597 -13.032500
									CHANNELS 3 Xrotation Yrotation Zrotation
									JOINT RightForeArm
									{
										OFFSET -29.960503 0.000000 0.000000
										CHANNELS 3 Xrotation Yrotation Zrotation
										JOINT RightHand
										{
											OFFSET -27.849251 0.000000 0.000000
											CHANNELS 3 Xrotation Yrotation Zrotation
											End Site
											{
												OFFSET 0 0 0
											}
										}
									}
								}
							}
						}
					}
				}
			}
		}
	}
}
MOTION
Frames: 8
Frame Time: 0.03333333
1.024527 93.691513 4.418388 0.000000 0.000000 0.000000 -0.895230 1.554003 -4.421725 -22.233562 9.554636 17.698468 30.446746 8.683758 2.524814 -6.085521 4.295718 -11.970425 0.000000 0.000000 0.000000 -0.895230 1.554003 -4.421725 3.799661 -3.818626 11.702050 3.915432 -5.401533 3.200462 -7.048632 1.142508 -9.593922 0.000000 0.000000 0.000000 -0.895230 1.554003 -4.421725 0.000000 0.000000 0.000000 1.278337 -1.194812 2.078961 0.728744 0.264195 5.944687 0.000000 0.000000 0.000000 0.710789 0.781493 5.851996 0.416724 -0.141643 -0.865270 0.000000 0.000000 0.000000 0.710789 0.781493 5.851996 3.582360 -13.764044 -5.044453 4.032787 3.514255 -83.678321 -0.000001 -14.506748 0.000019 0.000000 0.000000 0.000000 0.710789 0.781493 5.851996 4.508128 3.324373 5.471577 -1.219627 0.655869 67.345406 -0.000003 17.736789 0.000007 0.000000 0.000000 0.000000 
0.781473 93.666321 4.390457 0.000000 0.000000 0.000000 -0.795208 1.659050 -4.621526 -22.561129 9.265549 18.086800 30.608752 8.830743 2.583683 -5.973616 4.098376 -12.242200 0.000000 0.000000 0.000000 -0.795208 1.659050 -4.621526 4.285435 -3.450956 12.147682 2.612623 -5.659180 3.267109 -6.391215 1.057390 -9.913518 0.000000 0.000000 0.000000 -0.795208 1.659050 -4.621526 0.000000 0.000000 0.000000 1.205487 -1.203141 2.109649 0.883787 0.274246 5.935622 0.000000 0.000000 0.000000 0.874439 0.782059 5.804659 0.367658 -0.157367 -0.764625 0.000000 0.000000 0.000000 0.874439 0.782059 5.804659 3.574453 -13.651338 -4.988284 3.522163 3.255679 -83.224626 0.000004 -14.517244 0.000010 0.000000 0.000000 0.000000 0.874439 0.782059 5.804659 4.449801 3.381854 5.730766 -1.131083 1.840465 67.077075 0.000007 17.687979 -0.000010 0.000000 0.000000 0.000000 
0.551431 93.617126 4.379539 0.000000 0.000000 0.000000 -0.702489 1.784196 -4.839869 -22.949557 8.945273 18.478006 30.923839 8.893510 2.671111 -5.946463 3.981376 -12.524259 0.000000 0.000000 0.000000 -0.702489 1.784196 -4.839869 4.610662 -3.103932 12.587567 1.653382 -5.929928 3.318102 -5.874045 0.976030 -10.180096 0.000000 0.000000 0.000000 -0.702489 1.784196 -4.839869 0.000000 0.000000 0.000000 1.132760 -1.246838 2.134524 1.050319 0.266991 5.907281 0.000000 0.000000 0.000000 1.049970 0.762833 5.735963 0.305620 -0.169578 -0.657897 0.000000 0.000000 0.000000 1.049970 0.762833 5.735963 3.562880 -13.544197 -4.938704 2.983157 2.951939 -82.727873 0.000002 -14.534477 0.000006 0.000000 0.000000 0.000000 1.049970 0.762833 5.735963 4.366722 3.471358 6.080087 -1.020837 3.112629 66.763098 0.000003 17.420845 -0.000018 0.000000 0.000000 0.000000 
0.314826 93.547516 4.376858 0.000000 0.000000 0.000000 -0.617758 1.919953 -5.087590 -23.395129 8.585541 18.898474 31.367613 8.896000 2.788809 -5.977729 3.924891 -12.836123 0.000000 0.000000 0.000000 -0.617758 1.919953 -5.087590 4.825806 -2.770921 13.049575 0.923944 -6.199963 3.364739 -5.438639 0.894413 -10.424694 0.000000 0.000000 0.000000 -0.617758 1.919953 -5.087590 0.000000 0.000000 0.000000 1.062634 -1.326521 2.155097 1.232320 0.241031 5.854369 0.000000 0.000000 0.000000 1.241433 0.721576 5.640134 0.229217 -0.178559 -0.544437 0.000000 0.000000 0.000000 1.241433 0.721576 5.640134 3.545848 -13.448695 -4.903269 2.410666 2.590262 -82.167818 0.000002 -14.558664 -0.000008 0.000000 0.000000 0.000000 1.241433 0.721576 5.640134 4.249134 3.601339 6.547293 -0.880252 4.489445 66.384589 0.000001 16.863168 -0.000014 0.000000 0.000000 0.000000 
0.063642 93.457817 4.380707 0.000000 0.000000 0.000000 -0.543809 2.045248 -5.366139 -23.885329 8.192619 19.365147 31.931223 8.874712 2.929005 -6.064285 3.900272 -13.188743 0.000000 0.000000 0.000000 -0.543809 2.045248 -5.366139 4.946635 -2.454641 13.539181 0.393009 -6.443143 3.416260 -5.066946 0.809509 -10.662426 0.000000 0.000000 0.000000 -0.543809 2.045248 -5.366139 0.000000 0.000000 0.000000 0.997963 -1.425094 2.172931 1.429398 0.202694 5.778112 0.000000 0.000000 0.000000 1.448346 0.664556 5.518764 0.141101 -0.186482 -0.426542 0.000000 0.000000 0.000000 1.448346 0.664556 5.518764 3.522327 -13.372173 -4.891376 1.812807 2.172308 -81.542821 0.000005 -14.586982 0.000002 0.000000 0.000000 0.000000 1.448346 0.664556 5.518764 4.093630 3.769172 7.130597 -0.702276 5.949834 65.935422 -0.000003 16.011024 0.000013 0.000000 0.000000 0.000000 
-0.196693 93.354958 4.393536 0.000000 0.000000 0.000000 -0.484290 2.133953 -5.673991 -24.387761 7.790201 19.884996 32.582550 8.861820 3.075688 -6.204198 3.881189 -13.575699 0.000000 0.000000 0.000000 -0.484290 2.133953 -5.673991 5.019313 -2.146658 14.049318 -0.028453 -6.635577 3.475654 -4.713808 0.719009 -10.895135 0.000000 0.000000 0.000000 -0.484290 2.133953 -5.673991 0.000000 0.000000 0.000000 0.939475 -1.519431 2.195752 1.637297 0.161679 5.684108 0.000000 0.000000 0.000000 1.666274 0.602025 5.378335 0.044949 -0.196058 -0.307702 0.000000 0.000000 0.000000 1.666274 0.602025 5.378335 3.492060 -13.321120 -4.911892 1.205045 1.711484 -80.868204 0.000002 -14.615674 0.000009 0.000000 0.000000 0.000000 1.666274 0.602025 5.378335 3.902148 3.965214 7.806593 -0.482710 7.449651 65.417189 -0.000009 14.915497 0.000040 0.000000 0.000000 0.000000 
-0.456709 93.246208 4.417767 0.000000 0.000000 0.000000 -0.439514 2.165952 -6.006372 -24.873175 7.399148 20.453080 33.288074 8.877443 3.217024 -6.394430 3.856061 -13.986227 0.000000 0.000000 0.000000 -0.439514 2.165952 -6.006372 5.055055 -1.837865 14.569039 -0.367400 -6.773096 3.536268 -4.365994 0.627285 -11.111919 0.000000 0.000000 0.000000 -0.439514 2.165952 -6.006372 0.000000 0.000000 0.000000 0.884535 -1.596507 2.228572 1.851263 0.124097 5.577865 0.000000 0.000000 0.000000 1.890353 0.540779 5.224988 -0.056451 -0.208798 -0.190319 0.000000 0.000000 0.000000 1.890353 0.540779 5.224988 3.455205 -13.298853 -4.970201 0.598898 1.221795 -80.162208 -0.000000 -14.643041 -0.000022 0.000000 0.000000 0.000000 1.890353 0.540779 5.224988 3.678147 4.180593 8.550201 -0.218669 8.953254 64.828358 0.000003 13.644678 -0.000004 0.000000 0.000000 0.000000 
-0.710575 93.137062 4.451733 0.000000 0.000000 0.000000 -0.404275 2.132460 -6.355900 -25.321048 7.021280 21.051919 34.012457 8.942074 3.350785 -6.621164 3.823547 -14.416123 0.000000 0.000000 0.000000 -0.404275 2.132460 -6.355900 4.915921 -1.555754 15.087512 -0.359939 -6.866338 3.585186 -4.154230 0.547856 -11.284140 0.000000 0.000000 0.000000 -0.404275 2.132460 -6.355900 0.000000 0.000000 0.000000 0.830834 -1.659728 2.269303 2.069166 0.089730 5.463032 0.000000 0.000000 0.000000 2.118462 0.481223 5.062496 -0.161528 -0.224549 -0.074558 0.000000 0.000000 0.000000 2.118462 0.481223 5.062496 3.412183 -13.304317 -5.066097 -0.003701 0.711627 -79.437798 0.000002 -14.669286 -0.000001 0.000000 0.000000 0.000000 2.118462 0.481223 5.062496 3.425539 4.409706 9.342795 0.091960 10.447077 64.160789 0.000001 12.268274 0.000005 0.000000 0.000000 0.000000 
